<svg width="128" height="128" viewBox="0 0 128 128" fill="none" xmlns="http://www.w3.org/2000/svg">
<path d="M126.67 98.4399C122.11 99.5999 119.29 98.4899 116.76 94.6899C111.08 86.1799 104.81 78.0599 98.76 69.7899C97.98 68.7199 97.17 67.6699 96.16 66.3399C89 75.9999 81.85 85.1999 75.14 94.7699C72.74 98.1899 70.22 99.6799 65.74 98.4699L92.66 62.3399L67.6 29.7099C71.91 28.8699 74.89 29.2999 77.53 33.1599C83.36 41.6799 89.79 49.7899 96.2 58.3699C102.65 49.8199 109 41.6999 115 33.2599C117.41 29.8399 120 28.5399 124.33 29.7999C121.05 34.1499 117.84 38.4299 114.61 42.6799C110.25 48.4099 105.97 54.2099 101.45 59.8199C99.84 61.8199 100.1 63.1199 101.54 65.0099C109.9 75.9999 118.16 87.0999 126.67 98.4399ZM1.33005 61.7399C2.05005 58.1299 2.53005 54.4499 3.53005 50.9099C9.53005 29.4799 34.13 20.5699 51.03 33.8499C60.93 41.6399 63.3901 52.6199 62.9001 64.9999H7.10005C6.26005 87.2099 22.2501 100.62 42.6301 93.7799C49.7801 91.3799 53.99 85.7799 56.1 78.7799C57.17 75.2699 58.9401 74.7199 62.2401 75.7199C60.5501 84.4799 56.7201 91.7999 48.7201 96.3799C36.7201 103.24 19.59 101.02 10.58 91.4899C5.26005 85.8899 3.00005 78.9199 2.00005 71.3899C1.85005 70.1899 1.54005 69.0099 1.30005 67.8199C1.32005 65.7932 1.33005 63.7666 1.33005 61.7399V61.7399ZM7.20005 60.2499H57.6301C57.3001 44.1899 47.3001 32.7799 33.6301 32.6799C18.6301 32.5599 7.85005 43.6999 7.20005 60.2499V60.2499Z" fill="#956BBE"/>
</svg>
