<svg width="180" height="182" viewBox="0 0 180 182" fill="none" xmlns="http://www.w3.org/2000/svg">
<path d="M63.9844 181.406C80.7187 181.406 94.2188 167.906 94.2188 151.172V120.938H63.9844C47.25 120.938 33.75 134.438 33.75 151.172C33.75 167.906 47.25 181.406 63.9844 181.406ZM33.75 90.7031C33.75 73.9688 47.25 60.4688 63.9844 60.4688H94.2188V120.938H63.9844C47.25 120.938 33.75 107.437 33.75 90.7031ZM33.75 30.2344C33.75 13.5 47.25 0 63.9844 0H94.2188V60.4688H63.9844C47.25 60.4688 33.75 46.9687 33.75 30.2344ZM94.2188 0H124.453C141.187 0 154.688 13.5 154.688 30.2344C154.688 46.9687 141.187 60.4688 124.453 60.4688H94.2188V0ZM154.688 90.7031C154.688 107.437 141.187 120.938 124.453 120.938C107.719 120.938 94.2188 107.437 94.2188 90.7031C94.2188 73.9688 107.719 60.4688 124.453 60.4688C141.187 60.4688 154.688 73.9688 154.688 90.7031Z" fill="#956BBE"/>
</svg>
