<svg width="128" height="128" viewBox="0 0 128 128" fill="none" xmlns="http://www.w3.org/2000/svg">
<path d="M27.35 80.52L38.03 12.08C38.4 9.74998 41.53 9.18998 42.63 11.28L54.11 32.76L27.35 80.52V80.52ZM103.29 97.15L93.1 34.11C92.79 32.15 90.34 31.35 88.93 32.76L24.71 97.15L60.25 117.1C61.3498 117.705 62.5847 118.022 63.84 118.022C65.0952 118.022 66.3302 117.705 67.43 117.1L103.29 97.15V97.15ZM74.44 42.15L66.21 26.5C65.29 24.72 62.77 24.72 61.85 26.5L25.7 90.95L74.44 42.15V42.15Z" fill="#956BBE"/>
</svg>
