<svg width="180" height="180" viewBox="0 0 180 180" fill="none" xmlns="http://www.w3.org/2000/svg">
<path d="M175.419 82.0941L97.9103 4.59001C93.4497 0.126572 86.2103 0.126572 81.7426 4.59001L65.6509 20.6859L86.0668 41.1019C90.8129 39.5002 96.2523 40.5745 100.034 44.3559C101.836 46.1596 103.094 48.4341 103.664 50.9192C104.234 53.4043 104.094 55.9997 103.258 58.4086L122.935 78.0877C127.695 76.4466 133.189 77.5069 136.989 81.315C142.304 86.6264 142.304 95.2369 136.989 100.551C135.725 101.815 134.226 102.817 132.575 103.501C130.924 104.185 129.155 104.538 127.368 104.538C125.581 104.538 123.811 104.185 122.161 103.501C120.51 102.817 119.01 101.815 117.747 100.551C115.849 98.652 114.555 96.234 114.029 93.6013C113.502 90.9687 113.766 88.239 114.787 85.7559L96.4379 67.4058L96.4351 115.698C97.7664 116.353 98.9819 117.222 100.034 118.268C105.348 123.58 105.348 132.188 100.034 137.51C94.7195 142.822 86.1062 142.822 80.7976 137.51C75.4848 132.189 75.0489 123.581 80.3603 118.268C81.6737 116.956 82.9689 115.965 84.3751 115.301V66.562C82.9689 65.8983 81.6751 64.9139 80.3589 63.5934C76.3356 59.5716 75.5833 53.6653 77.6476 48.7209L57.6325 28.5933L4.5409 81.7355C0.0760584 86.2031 0.104183 93.4425 4.56903 97.9074L82.09 175.411C86.552 179.875 93.797 179.875 98.2661 175.411L175.413 98.2674C179.878 93.8011 179.882 86.5575 175.419 82.0941V82.0941Z" fill="#956BBE"/>
</svg>
