<svg width="128" height="128" viewBox="0 0 128 128" fill="none" xmlns="http://www.w3.org/2000/svg">
<path d="M47.6171 98.1199C28.4251 103.482 59.2941 114.559 83.7321 104.089C79.7291 102.533 76.8581 100.738 76.8581 100.738C65.9611 102.798 60.9061 102.96 51.0141 101.83C42.8501 100.895 47.6171 98.1199 47.6171 98.1199V98.1199ZM80.8061 87.6599C66.3621 90.4389 58.0191 90.3499 47.4521 89.2599C39.2811 88.4149 44.6301 84.4549 44.6301 84.4549C23.4931 91.4709 56.3971 99.4319 85.9391 90.7909C82.7991 89.6849 80.8061 87.6599 80.8061 87.6599V87.6599ZM92.1251 27.0849C92.1261 27.0849 49.3941 37.7539 69.8021 61.2719C75.8261 68.2069 68.2221 74.4419 68.2221 74.4419C68.2221 74.4419 83.5111 66.5509 76.4911 56.6649C69.9321 47.4499 64.9041 42.8719 92.1251 27.0849ZM102.123 108.229C102.123 108.229 105.652 111.139 98.2351 113.388C84.1331 117.66 39.5291 118.948 27.1401 113.559C22.6901 111.621 31.0391 108.934 33.6661 108.367C36.4051 107.774 37.9691 107.882 37.9691 107.882C33.0171 104.395 5.95611 114.732 24.2271 117.697C74.0481 125.773 115.044 114.06 102.123 108.229V108.229ZM85.0001 77.8959C87.3951 76.2619 90.7031 74.8429 90.7031 74.8429C90.7031 74.8429 81.2791 76.5279 71.8901 77.3169C60.3961 78.2809 48.0671 78.4709 41.8781 77.6429C27.2261 75.6839 49.9111 70.2949 49.9111 70.2949C49.9111 70.2949 41.0991 69.6989 30.2671 74.9389C17.4551 81.1339 61.9581 83.9579 85.0001 77.8959ZM90.6091 93.0409C90.5011 93.3309 90.1411 93.6569 90.1411 93.6569C121.414 85.4359 109.916 64.6779 94.9631 69.9319C93.6511 70.3959 92.9631 71.4749 92.9631 71.4749C92.9631 71.4749 93.7921 71.1409 95.6411 70.7549C103.2 69.1799 114.03 80.8739 90.6091 93.0409ZM64.1811 70.0689C59.5671 59.6399 43.9211 50.5159 64.1881 34.5099C89.4591 14.5629 76.4921 1.58691 76.4921 1.58691C81.7221 22.1949 58.0411 28.4199 49.4931 41.2539C43.6721 49.9989 52.3501 59.3959 64.1811 70.0689V70.0689ZM91.4551 121.817C72.2681 125.429 48.6011 125.008 34.5681 122.691C34.5681 122.691 37.4421 125.071 52.2141 126.022C74.6901 127.459 109.214 125.222 110.03 114.586C110.031 114.586 108.46 118.618 91.4551 121.817Z" fill="#956BBE"/>
</svg>
