<svg width="128" height="128" viewBox="0 0 128 128" fill="none" xmlns="http://www.w3.org/2000/svg">
<path fill-rule="evenodd" clip-rule="evenodd" d="M90.491 57.2819C90.121 52.4919 88.995 47.8729 87.429 43.3479C84.185 33.2439 78.979 24.3019 71.646 16.6079C69.792 14.6619 67.73 12.8789 66.437 10.4569C65.619 8.92493 64.84 7.37193 64.043 5.82793L63.538 4.55493C63.453 4.84693 63.399 4.95093 63.396 5.05593C63.331 7.57293 61.905 9.27993 60.129 10.8729C58.132 12.6659 56.273 14.6119 54.354 16.4909L48.453 24.2539C46.861 27.1789 45.271 30.1039 43.681 33.0289L40.491 41.6459L40.395 41.7799C38.639 47.5479 37.773 53.4779 37.347 59.4679C37.187 61.7189 37.369 64.0029 37.496 66.2659C37.677 69.5009 38.239 72.6809 39.082 75.8109C42.144 87.1829 48.358 96.6159 56.853 104.63C58.432 106.119 60.052 107.473 61.7 108.89C61.982 107.925 62.207 106.96 62.463 105.995C62.719 105.034 62.978 104.078 63.151 103.114C62.977 104.078 62.782 105.034 62.589 105.995L61.763 108.89L62.501 111.391L63.185 115.275L63.511 119.328C63.508 120.151 63.475 120.976 63.525 121.798C63.537 122.008 63.813 122.202 63.967 122.404L65.343 122.887L66.777 123.445L66.531 119.842L66.52 116.294L67.015 110.889L67.374 109.712L68.401 107.892C69.669 106.872 71.03 105.946 72.185 104.811C74.275 102.757 76.36 100.677 78.23 98.4279C80.664 95.5129 82.7423 92.3184 84.421 88.9119C85.543 86.6279 86.599 84.2979 87.473 81.9109C88.243 79.8069 88.72 77.5959 89.327 75.4319C89.381 75.2759 89.453 75.1229 89.487 74.9639C90.741 69.1229 90.952 63.2229 90.491 57.2819V57.2819ZM66.892 106.657L66.087 104.894L66.892 106.657L68.075 107.667L66.892 106.657Z" fill="#956BBE"/>
</svg>
