<svg width="180" height="180" viewBox="0 0 180 180" fill="none" xmlns="http://www.w3.org/2000/svg">
<path d="M158.584 42.6571L96.5728 6.65012C92.662 4.42262 87.57 4.42262 83.6283 6.65012L20.9545 42.6571C16.9186 44.9789 14.0625 49.3425 14.0625 54.0098V125.928C14.0625 130.596 16.9931 134.961 21.0291 137.295L37.5877 146.7C45.502 150.598 48.2991 150.598 51.9005 150.598C63.6188 150.598 70.3125 143.512 70.3125 131.152V60.1509C70.3125 59.1482 69.7908 57.6562 68.8064 57.6562H60.8991C59.8978 57.6562 57.6562 59.1482 57.6562 60.1495V131.151C57.6562 136.63 52.7006 142.082 43.4391 137.451L26.3292 127.589C25.733 127.266 25.3125 126.614 25.3125 125.928V54.0098C25.3125 53.332 26.093 52.6514 26.6934 52.304L89.1647 16.3589C89.7483 16.0284 90.6061 16.0284 91.1883 16.3589L152.897 52.2956C153.488 52.6514 153.28 53.3109 153.28 54.0098V125.928C153.28 126.614 153.537 127.282 152.954 127.613L90.9577 163.579C90.4261 163.898 89.7666 163.898 89.1844 163.579L73.2839 154.088C72.8044 153.81 72.2348 153.71 71.775 153.967C67.3509 156.475 66.5353 156.808 62.3855 158.247C61.3645 158.602 59.8584 159.22 62.962 160.959L83.7717 173.27C85.7584 174.417 88.0122 175.021 90.3066 175.022C92.6156 175.022 94.8769 174.423 96.8695 173.27L158.583 137.295C162.619 134.944 164.531 130.596 164.531 125.928V54.0098C164.531 49.3425 162.619 44.9901 158.584 42.6571V42.6571ZM109.561 114.532C93.0713 114.532 89.4389 109.983 88.2281 101.783C88.0875 100.9 87.338 99.8437 86.4394 99.8437H78.3802C77.3831 99.8437 76.5816 101.053 76.5816 102.046C76.5816 112.545 82.2895 125.266 109.562 125.266C129.305 125.266 140.624 117.595 140.624 104.019C140.624 90.5582 131.529 87.0257 112.383 84.4917C93.0305 81.9337 91.0645 80.6414 91.0645 76.1076C91.0645 72.3698 92.7295 67.3846 107.059 67.3846C119.863 67.3846 124.582 70.1325 126.525 78.7626C126.69 79.574 127.432 80.1562 128.268 80.1562H136.36C136.858 80.1562 137.333 79.9551 137.682 79.5993C138.019 79.2168 138.198 78.7373 138.153 78.2226C136.9 63.3614 127.027 56.4356 107.058 56.4356C89.2955 56.4356 78.6994 63.9365 78.6994 76.5098C78.6994 90.1476 89.242 93.9164 106.293 95.6025C126.69 97.6021 128.277 100.583 128.277 104.595C128.277 111.563 122.683 114.532 109.561 114.532Z" fill="#956BBE"/>
</svg>
