<svg width="129" height="130" viewBox="0 0 129 130" fill="none" xmlns="http://www.w3.org/2000/svg">
<path d="M116.452 7.64312C114.659 11.9438 112.364 16.0174 109.615 19.7791C97.569 7.74002 81.2358 0.97619 64.205 0.974121C28.984 0.974121 5.95073e-08 29.9821 5.95073e-08 65.2421C-0.000374473 73.9492 1.7672 82.5656 5.19561 90.5693C8.62401 98.573 13.6418 105.797 19.945 111.804L22.313 113.904C33.8859 123.662 48.5336 129.017 63.671 129.026C97.158 129.026 125.308 102.786 127.692 69.3431C129.443 52.9721 124.641 32.2661 116.452 7.64312V7.64312ZM29.067 112.17C28.5515 112.805 27.9008 113.317 27.1623 113.669C26.4237 114.021 25.616 114.204 24.798 114.204C21.78 114.204 19.311 111.72 19.311 108.702C19.311 105.685 21.796 103.201 24.798 103.201C26.048 103.201 27.283 103.634 28.25 104.435C30.601 106.335 30.968 109.819 29.067 112.17ZM116.186 92.9321C100.343 114.054 66.506 106.935 44.81 107.952C44.81 107.952 40.958 108.186 37.089 108.819C37.089 108.819 38.539 108.202 40.424 107.485C55.65 102.184 62.854 101.15 72.109 96.3991C89.536 87.5301 106.763 68.1251 110.349 47.9361C103.712 67.3581 83.599 84.0461 65.272 90.8311C52.715 95.4661 30.034 99.9671 30.034 99.9671L29.117 99.4831C13.675 91.9651 13.207 58.5061 41.274 47.7031C53.565 42.9681 65.322 45.5691 78.597 42.4011C92.772 39.0341 109.165 28.3971 115.835 14.5271C123.306 36.7171 132.295 71.4591 116.185 92.9321H116.186Z" fill="#956BBE"/>
</svg>
