<svg width="128" height="128" viewBox="0 0 128 128" fill="none" xmlns="http://www.w3.org/2000/svg">
<path d="M64.004 25.6021C46.937 25.6021 36.274 34.1321 32.004 51.1991C38.402 42.6681 45.871 39.4691 54.402 41.6021C59.273 42.8161 62.754 46.3481 66.609 50.2621C72.883 56.6291 80.145 64.0001 96.004 64.0001C113.07 64.0001 123.734 55.469 128.004 38.3981C121.605 46.9341 114.137 50.1331 105.605 48.0001C100.735 46.7851 97.258 43.2541 93.398 39.3401C87.128 32.9731 79.868 25.6021 64.004 25.6021V25.6021ZM32.004 64.0001C14.938 64.0001 4.27403 72.5311 0.00402832 89.6021C6.40203 81.0661 13.87 77.8671 22.402 80.0001C27.273 81.2151 30.754 84.7461 34.609 88.6601C40.883 95.0271 48.145 102.398 64.004 102.398C81.07 102.398 91.734 93.8681 96.004 76.8011C89.605 85.3321 82.137 88.5311 73.605 86.3981C68.735 85.1841 65.258 81.6521 61.398 77.7381C55.128 71.3711 47.868 64.0001 32.004 64.0001Z" fill="#956BBE"/>
</svg>
